<mxfile host="Electron" modified="2023-10-03T15:39:34.596Z" agent="Mozilla/5.0 (Macintosh; Intel Mac OS X 10_15_7) AppleWebKit/537.36 (KHTML, like Gecko) draw.io/21.8.2 Chrome/114.0.5735.289 Electron/25.8.1 Safari/537.36" etag="Y3FPuL4OMTNQoMoYOpgk" version="21.8.2" type="device">
  <diagram name="Page-1" id="9M289yQcG2v6xxKC1-7h">
    <mxGraphModel dx="954" dy="613" grid="1" gridSize="10" guides="1" tooltips="1" connect="1" arrows="1" fold="1" page="1" pageScale="1" pageWidth="850" pageHeight="1100" math="0" shadow="0">
      <root>
        <mxCell id="0" />
        <mxCell id="1" parent="0" />
        <mxCell id="ott8dTDoDk-XxT1LMyJ5-1" value="" style="triangle;whiteSpace=wrap;html=1;rotation=-90;fillColor=#E6E6E6;" vertex="1" parent="1">
          <mxGeometry x="415" y="255" width="60" height="130" as="geometry" />
        </mxCell>
        <mxCell id="ott8dTDoDk-XxT1LMyJ5-2" value="" style="rounded=0;whiteSpace=wrap;html=1;rotation=90;fillColor=#E6E6E6;" vertex="1" parent="1">
          <mxGeometry x="377" y="383" width="45" height="20" as="geometry" />
        </mxCell>
        <mxCell id="ott8dTDoDk-XxT1LMyJ5-3" value="" style="rounded=0;whiteSpace=wrap;html=1;rotation=0;fillColor=#E6E6E6;" vertex="1" parent="1">
          <mxGeometry x="385" y="355" width="120" height="10" as="geometry" />
        </mxCell>
        <mxCell id="ott8dTDoDk-XxT1LMyJ5-5" value="" style="rounded=0;whiteSpace=wrap;html=1;rotation=0;fillColor=#E6E6E6;" vertex="1" parent="1">
          <mxGeometry x="385" y="420" width="120" height="10" as="geometry" />
        </mxCell>
        <mxCell id="ott8dTDoDk-XxT1LMyJ5-6" value="" style="rounded=0;whiteSpace=wrap;html=1;rotation=0;fillColor=#E6E6E6;" vertex="1" parent="1">
          <mxGeometry x="380" y="434" width="130" height="10" as="geometry" />
        </mxCell>
        <mxCell id="ott8dTDoDk-XxT1LMyJ5-7" value="" style="rounded=0;whiteSpace=wrap;html=1;rotation=90;fillColor=#E6E6E6;" vertex="1" parent="1">
          <mxGeometry x="468" y="383" width="45" height="20" as="geometry" />
        </mxCell>
        <mxCell id="ott8dTDoDk-XxT1LMyJ5-8" value="" style="rounded=0;whiteSpace=wrap;html=1;rotation=90;fillColor=#E6E6E6;" vertex="1" parent="1">
          <mxGeometry x="408" y="383" width="45" height="20" as="geometry" />
        </mxCell>
        <mxCell id="ott8dTDoDk-XxT1LMyJ5-9" value="" style="rounded=0;whiteSpace=wrap;html=1;rotation=90;fillColor=#E6E6E6;" vertex="1" parent="1">
          <mxGeometry x="438" y="383" width="45" height="20" as="geometry" />
        </mxCell>
        <mxCell id="ott8dTDoDk-XxT1LMyJ5-10" value="&lt;font style=&quot;font-size: 38px;&quot;&gt;$&lt;/font&gt;" style="text;html=1;strokeColor=none;fillColor=none;align=center;verticalAlign=middle;whiteSpace=wrap;rounded=0;fontSize=38;" vertex="1" parent="1">
          <mxGeometry x="430" y="309" width="30" height="30" as="geometry" />
        </mxCell>
      </root>
    </mxGraphModel>
  </diagram>
</mxfile>
